<svg xmlns="http://www.w3.org/2000/svg" xmlns:xlink="http://www.w3.org/1999/xlink" width="500" zoomAndPan="magnify"
     viewBox="0 0 375 374.999991" height="500" preserveAspectRatio="xMidYMid meet" version="1.0">
    <defs>
        <g/>
        <clipPath id="0276083d47">
            <path d="M 273 74 L 356.449219 74 L 356.449219 301 L 273 301 Z M 273 74 " clip-rule="nonzero"/>
        </clipPath>
    </defs>
    <rect x="-37.5" width="450" fill="#ffffff" y="-37.499999" height="449.999989" fill-opacity="1"/>
    <rect x="-37.5" width="450" fill="#050a30" y="-37.499999" height="449.999989" fill-opacity="1"/>
    <g fill="#ffffff" fill-opacity="1">
        <g transform="translate(104.914911, 229.728422)">
            <g>
                <path d="M 51.078125 -110.484375 L 53.421875 -110.484375 C 66.054688 -110.484375 73.941406 -101.039062 77.078125 -82.15625 C 77.078125 -66.738281 65.65625 -53.320312 42.8125 -41.90625 C 36.5 -41.90625 33.34375 -40.335938 33.34375 -37.203125 C 31.78125 -11.085938 30.210938 7.828125 28.640625 19.546875 L 26.21875 19.546875 C 24.65625 11.316406 23.492188 -1.285156 22.734375 -18.265625 C 24.804688 -66.359375 27.9375 -90.40625 32.125 -90.40625 C 33.75 -90.40625 35.34375 -88.03125 36.90625 -83.28125 C 36.90625 -78.6875 35.71875 -65.675781 33.34375 -44.25 L 34.5625 -44.25 C 56.582031 -55.820312 67.59375 -68.050781 67.59375 -80.9375 L 67.59375 -82.15625 C 65.832031 -94.726562 60.734375 -101.015625 52.296875 -101.015625 L 51.078125 -101.015625 C 36.421875 -101.015625 21.441406 -92.351562 6.140625 -75.03125 C 4.578125 -75.03125 3.796875 -75.8125 3.796875 -77.375 L 3.796875 -79.71875 C 3.796875 -89.019531 15.210938 -98.875 38.046875 -109.28125 C 43.453125 -110.082031 47.796875 -110.484375 51.078125 -110.484375 Z M 51.078125 -110.484375 "/>
            </g>
        </g>
    </g>
    <g fill="#ffffff" fill-opacity="1">
        <g transform="translate(169.321857, 229.728422)">
            <g>
                <path d="M 84.1875 -100.484375 L 86.546875 -100.484375 C 84.972656 -89.316406 83.785156 -78.679688 82.984375 -68.578125 C 90.859375 -69.335938 96.769531 -69.71875 100.71875 -69.71875 L 113.75 -69.71875 L 113.75 -67.375 C 92.476562 -62.675781 81.84375 -59.515625 81.84375 -57.890625 C 81.039062 -22.929688 79.851562 -0.476562 78.28125 9.46875 L 75.9375 9.46875 C 74.320312 -4.976562 73.515625 -20.738281 73.515625 -37.8125 C 73.515625 -41.957031 73.914062 -48.648438 74.71875 -57.890625 C 49.507812 -52.441406 36.90625 -47.722656 36.90625 -43.734375 L 34.5625 -15.390625 C 36.125 -9.773438 36.90625 -5.425781 36.90625 -2.34375 L 33.34375 0 L 31 0 C 27.8125 0 25.835938 -4.722656 25.078125 -14.171875 C 25.078125 -24.171875 25.863281 -34.023438 27.4375 -43.734375 C 18.039062 -40.597656 12.128906 -39.03125 9.703125 -39.03125 L 7.34375 -39.03125 C 6.1875 -39.03125 5.003906 -40.21875 3.796875 -42.59375 L 3.796875 -43.734375 C 3.941406 -45.296875 12.601562 -49.234375 29.78125 -55.546875 C 33.976562 -80.753906 38.320312 -93.359375 42.8125 -93.359375 L 45.171875 -93.359375 C 46.734375 -93.160156 47.515625 -92.378906 47.515625 -91.015625 L 47.515625 -87.453125 C 45.390625 -87.453125 43.039062 -78.003906 40.46875 -59.109375 L 41.609375 -59.109375 C 64.390625 -64.054688 75.832031 -67.210938 75.9375 -68.578125 C 77.851562 -89.847656 80.601562 -100.484375 84.1875 -100.484375 Z M 84.1875 -100.484375 "/>
            </g>
        </g>
    </g>
    <path fill="#f4f6fc"
          d="M 101.152344 293.261719 C 90.578125 292 78.375 296.152344 68.671875 290.308594 C 59.242188 284.625 60.195312 271.195312 60.632812 261.722656 C 61.609375 240.328125 66.757812 214.707031 52.007812 196.484375 C 48.507812 192.167969 44.074219 188.660156 39.109375 186.464844 C 42.308594 184.769531 45.257812 182.558594 47.824219 180.011719 C 55.359375 172.53125 59.480469 162.445312 61.105469 152.070312 C 62.9375 140.367188 61.773438 128.578125 60.910156 116.847656 C 60.464844 110.804688 60.101562 104.738281 60.371094 98.683594 C 60.566406 94.304688 61.082031 89.0625 64.140625 85.644531 C 67.6875 81.675781 73.734375 80.671875 78.792969 80.554688 C 85.589844 80.402344 92.304688 81.464844 99.101562 80.65625 C 101.773438 80.335938 104.050781 73.71875 100.324219 74.164062 C 89.667969 75.433594 78.710938 71.894531 68.527344 76.566406 C 58.734375 81.058594 55.601562 91.613281 55.160156 101.578125 C 54.621094 113.734375 56.550781 125.820312 56.859375 137.953125 C 57.132812 148.65625 56.1875 160.074219 50.613281 169.480469 C 45.234375 178.550781 34.863281 184.703125 24.203125 183.214844 C 21.898438 182.890625 19.476562 187.394531 20.601562 189.152344 C 20.660156 190.167969 21.222656 190.882812 22.539062 190.703125 C 32.167969 189.363281 41.589844 194.613281 47.519531 201.933594 C 54.386719 210.414062 56.660156 221.582031 57.03125 232.246094 C 57.449219 244.160156 55.597656 255.996094 55.304688 267.886719 C 55.066406 277.519531 55.222656 289.515625 63.859375 295.765625 C 73.945312 303.070312 87.296875 298.507812 98.65625 299.859375 C 101.441406 300.203125 104.355469 293.644531 101.152344 293.261719 Z M 101.152344 293.261719 "
          fill-opacity="1" fill-rule="nonzero"/>
    <g clip-path="url(#0276083d47)">
        <path fill="#f4f6fc"
              d="M 275.226562 293.261719 C 285.796875 292 298 296.152344 307.703125 290.308594 C 317.132812 284.625 316.179688 271.195312 315.742188 261.722656 C 314.765625 240.328125 309.617188 214.703125 324.371094 196.484375 C 327.867188 192.167969 332.300781 188.660156 337.265625 186.464844 C 334.066406 184.769531 331.117188 182.558594 328.550781 180.011719 C 321.015625 172.53125 316.894531 162.445312 315.269531 152.070312 C 313.441406 140.367188 314.601562 128.578125 315.46875 116.847656 C 315.914062 110.804688 316.273438 104.738281 316.007812 98.683594 C 315.808594 94.304688 315.292969 89.0625 312.238281 85.644531 C 308.6875 81.675781 302.640625 80.671875 297.585938 80.554688 C 290.785156 80.402344 284.070312 81.464844 277.277344 80.65625 C 274.601562 80.335938 272.328125 73.71875 276.054688 74.164062 C 286.707031 75.433594 297.664062 71.894531 307.847656 76.566406 C 317.640625 81.058594 320.773438 91.613281 321.21875 101.578125 C 321.757812 113.734375 319.828125 125.820312 319.519531 137.953125 C 319.242188 148.65625 320.1875 160.074219 325.765625 169.480469 C 331.140625 178.550781 341.511719 184.703125 352.175781 183.214844 C 354.480469 182.890625 356.898438 187.394531 355.777344 189.152344 C 355.714844 190.167969 355.152344 190.882812 353.835938 190.703125 C 344.210938 189.363281 334.789062 194.613281 328.855469 201.933594 C 321.992188 210.414062 319.714844 221.582031 319.34375 232.246094 C 318.929688 244.160156 320.777344 255.996094 321.074219 267.886719 C 321.3125 277.519531 321.152344 289.515625 312.515625 295.765625 C 302.429688 303.070312 289.082031 298.507812 277.71875 299.859375 C 274.933594 300.203125 272.023438 293.644531 275.226562 293.261719 Z M 275.226562 293.261719 "
              fill-opacity="1" fill-rule="nonzero"/>
    </g>
</svg>
