<svg xmlns="http://www.w3.org/2000/svg"
     xmlns:xlink="http://www.w3.org/1999/xlink" width="500" zoomAndPan="magnify" viewBox="0 0 375 374.999991"
     height="500" preserveAspectRatio="xMidYMid meet" version="1.0">
    <defs>
        <g/>
    </defs>
    <rect x="-37.5" width="450" fill="#ffffff" y="-37.499999" height="449.999989" fill-opacity="1"/>
    <rect x="-37.5" width="450" fill="#050a30" y="-37.499999" height="449.999989" fill-opacity="1"/>
    <g fill="#ffffff" fill-opacity="1">
        <g transform="translate(103.319832, 173.079817)">
            <g>
                <path d="M 14.953125 -5.3125 C 14.953125 -4.207031 14.675781 -3.226562 14.125 -2.375 C 13.570312 -1.53125 12.773438 -0.867188 11.734375 -0.390625 C 10.703125 0.0859375 9.4375 0.328125 7.9375 0.328125 C 6.539062 0.328125 5.269531 0.113281 4.125 -0.3125 C 2.988281 -0.75 2.019531 -1.351562 1.21875 -2.125 L 2.640625 -3.75 C 3.316406 -3.125 4.082031 -2.628906 4.9375 -2.265625 C 5.800781 -1.898438 6.816406 -1.71875 7.984375 -1.71875 C 8.765625 -1.71875 9.492188 -1.84375 10.171875 -2.09375 C 10.847656 -2.351562 11.394531 -2.742188 11.8125 -3.265625 C 12.226562 -3.785156 12.4375 -4.453125 12.4375 -5.265625 C 12.4375 -5.890625 12.316406 -6.421875 12.078125 -6.859375 C 11.835938 -7.296875 11.410156 -7.679688 10.796875 -8.015625 C 10.179688 -8.359375 9.328125 -8.691406 8.234375 -9.015625 C 6.972656 -9.378906 5.878906 -9.796875 4.953125 -10.265625 C 4.023438 -10.734375 3.304688 -11.3125 2.796875 -12 C 2.296875 -12.6875 2.046875 -13.539062 2.046875 -14.5625 C 2.046875 -15.507812 2.3125 -16.351562 2.84375 -17.09375 C 3.375 -17.84375 4.101562 -18.425781 5.03125 -18.84375 C 5.96875 -19.269531 7.046875 -19.484375 8.265625 -19.484375 C 9.585938 -19.484375 10.738281 -19.296875 11.71875 -18.921875 C 12.695312 -18.546875 13.585938 -18.003906 14.390625 -17.296875 L 12.96875 -15.71875 C 12.28125 -16.332031 11.539062 -16.773438 10.75 -17.046875 C 9.957031 -17.328125 9.15625 -17.46875 8.34375 -17.46875 C 7.644531 -17.46875 7.003906 -17.363281 6.421875 -17.15625 C 5.847656 -16.945312 5.382812 -16.632812 5.03125 -16.21875 C 4.6875 -15.800781 4.515625 -15.273438 4.515625 -14.640625 C 4.515625 -14.085938 4.660156 -13.613281 4.953125 -13.21875 C 5.253906 -12.820312 5.753906 -12.457031 6.453125 -12.125 C 7.160156 -11.789062 8.125 -11.445312 9.34375 -11.09375 C 10.34375 -10.800781 11.265625 -10.4375 12.109375 -10 C 12.960938 -9.570312 13.648438 -8.988281 14.171875 -8.25 C 14.691406 -7.507812 14.953125 -6.53125 14.953125 -5.3125 Z M 14.953125 -5.3125 "/>
            </g>
        </g>
    </g>
    <g fill="#ffffff" fill-opacity="1">
        <g transform="translate(116.995617, 173.079817)">
            <g>
                <path d="M 5.140625 -20.796875 L 5.140625 -12.65625 C 5.710938 -13.425781 6.421875 -14.003906 7.265625 -14.390625 C 8.109375 -14.773438 8.960938 -14.96875 9.828125 -14.96875 C 11.253906 -14.96875 12.296875 -14.585938 12.953125 -13.828125 C 13.609375 -13.066406 13.9375 -12.007812 13.9375 -10.65625 L 13.9375 0 L 11.609375 0 L 11.609375 -10.59375 C 11.609375 -11.476562 11.398438 -12.125 10.984375 -12.53125 C 10.578125 -12.9375 9.9375 -13.140625 9.0625 -13.140625 C 8.507812 -13.140625 7.984375 -13.015625 7.484375 -12.765625 C 6.984375 -12.515625 6.53125 -12.203125 6.125 -11.828125 C 5.726562 -11.453125 5.398438 -11.070312 5.140625 -10.6875 L 5.140625 0 L 2.796875 0 L 2.796875 -20.546875 Z M 5.140625 -20.796875 "/>
            </g>
        </g>
    </g>
    <g fill="#ffffff" fill-opacity="1">
        <g transform="translate(130.671402, 173.079817)">
            <g>
                <path d="M 4.640625 -6.5 C 4.679688 -5.375 4.894531 -4.445312 5.28125 -3.71875 C 5.675781 -3 6.191406 -2.46875 6.828125 -2.125 C 7.472656 -1.789062 8.171875 -1.625 8.921875 -1.625 C 9.679688 -1.625 10.363281 -1.734375 10.96875 -1.953125 C 11.570312 -2.179688 12.195312 -2.515625 12.84375 -2.953125 L 13.9375 -1.40625 C 13.25 -0.863281 12.46875 -0.4375 11.59375 -0.125 C 10.71875 0.175781 9.820312 0.328125 8.90625 0.328125 C 7.476562 0.328125 6.265625 0.00390625 5.265625 -0.640625 C 4.265625 -1.285156 3.5 -2.179688 2.96875 -3.328125 C 2.445312 -4.472656 2.1875 -5.800781 2.1875 -7.3125 C 2.1875 -8.800781 2.453125 -10.117188 2.984375 -11.265625 C 3.515625 -12.421875 4.253906 -13.328125 5.203125 -13.984375 C 6.160156 -14.640625 7.289062 -14.96875 8.59375 -14.96875 C 9.832031 -14.96875 10.894531 -14.675781 11.78125 -14.09375 C 12.675781 -13.519531 13.363281 -12.695312 13.84375 -11.625 C 14.320312 -10.550781 14.5625 -9.269531 14.5625 -7.78125 C 14.5625 -7.53125 14.554688 -7.296875 14.546875 -7.078125 C 14.535156 -6.859375 14.519531 -6.664062 14.5 -6.5 Z M 8.625 -13.046875 C 7.539062 -13.046875 6.632812 -12.660156 5.90625 -11.890625 C 5.175781 -11.117188 4.757812 -9.925781 4.65625 -8.3125 L 12.296875 -8.3125 C 12.273438 -9.882812 11.929688 -11.066406 11.265625 -11.859375 C 10.609375 -12.648438 9.726562 -13.046875 8.625 -13.046875 Z M 8.625 -13.046875 "/>
            </g>
        </g>
    </g>
    <g fill="#ffffff" fill-opacity="1">
        <g transform="translate(144.347185, 173.079817)">
            <g>
                <path d="M 8.515625 -20.578125 L 8.515625 -3.625 C 8.515625 -2.894531 8.738281 -2.378906 9.1875 -2.078125 C 9.632812 -1.773438 10.21875 -1.625 10.9375 -1.625 C 11.382812 -1.625 11.804688 -1.671875 12.203125 -1.765625 C 12.597656 -1.859375 13 -1.984375 13.40625 -2.140625 L 14.03125 -0.4375 C 13.625 -0.238281 13.125 -0.0625 12.53125 0.09375 C 11.945312 0.25 11.285156 0.328125 10.546875 0.328125 C 9.242188 0.328125 8.1875 -0.03125 7.375 -0.75 C 6.570312 -1.476562 6.171875 -2.476562 6.171875 -3.75 L 6.171875 -18.71875 L 1.671875 -18.71875 L 1.671875 -20.578125 Z M 8.515625 -20.578125 "/>
            </g>
        </g>
    </g>
    <g fill="#ffffff" fill-opacity="1">
        <g transform="translate(158.022972, 173.079817)">
            <g>
                <path d="M 8.515625 -20.578125 L 8.515625 -3.625 C 8.515625 -2.894531 8.738281 -2.378906 9.1875 -2.078125 C 9.632812 -1.773438 10.21875 -1.625 10.9375 -1.625 C 11.382812 -1.625 11.804688 -1.671875 12.203125 -1.765625 C 12.597656 -1.859375 13 -1.984375 13.40625 -2.140625 L 14.03125 -0.4375 C 13.625 -0.238281 13.125 -0.0625 12.53125 0.09375 C 11.945312 0.25 11.285156 0.328125 10.546875 0.328125 C 9.242188 0.328125 8.1875 -0.03125 7.375 -0.75 C 6.570312 -1.476562 6.171875 -2.476562 6.171875 -3.75 L 6.171875 -18.71875 L 1.671875 -18.71875 L 1.671875 -20.578125 Z M 8.515625 -20.578125 "/>
            </g>
        </g>
    </g>
    <g fill="#ffffff" fill-opacity="1">
        <g transform="translate(171.698758, 173.079817)">
            <g/>
        </g>
    </g>
    <g fill="#ffffff" fill-opacity="1">
        <g transform="translate(185.374544, 173.079817)">
            <g>
                <path d="M 14.953125 -5.3125 C 14.953125 -4.207031 14.675781 -3.226562 14.125 -2.375 C 13.570312 -1.53125 12.773438 -0.867188 11.734375 -0.390625 C 10.703125 0.0859375 9.4375 0.328125 7.9375 0.328125 C 6.539062 0.328125 5.269531 0.113281 4.125 -0.3125 C 2.988281 -0.75 2.019531 -1.351562 1.21875 -2.125 L 2.640625 -3.75 C 3.316406 -3.125 4.082031 -2.628906 4.9375 -2.265625 C 5.800781 -1.898438 6.816406 -1.71875 7.984375 -1.71875 C 8.765625 -1.71875 9.492188 -1.84375 10.171875 -2.09375 C 10.847656 -2.351562 11.394531 -2.742188 11.8125 -3.265625 C 12.226562 -3.785156 12.4375 -4.453125 12.4375 -5.265625 C 12.4375 -5.890625 12.316406 -6.421875 12.078125 -6.859375 C 11.835938 -7.296875 11.410156 -7.679688 10.796875 -8.015625 C 10.179688 -8.359375 9.328125 -8.691406 8.234375 -9.015625 C 6.972656 -9.378906 5.878906 -9.796875 4.953125 -10.265625 C 4.023438 -10.734375 3.304688 -11.3125 2.796875 -12 C 2.296875 -12.6875 2.046875 -13.539062 2.046875 -14.5625 C 2.046875 -15.507812 2.3125 -16.351562 2.84375 -17.09375 C 3.375 -17.84375 4.101562 -18.425781 5.03125 -18.84375 C 5.96875 -19.269531 7.046875 -19.484375 8.265625 -19.484375 C 9.585938 -19.484375 10.738281 -19.296875 11.71875 -18.921875 C 12.695312 -18.546875 13.585938 -18.003906 14.390625 -17.296875 L 12.96875 -15.71875 C 12.28125 -16.332031 11.539062 -16.773438 10.75 -17.046875 C 9.957031 -17.328125 9.15625 -17.46875 8.34375 -17.46875 C 7.644531 -17.46875 7.003906 -17.363281 6.421875 -17.15625 C 5.847656 -16.945312 5.382812 -16.632812 5.03125 -16.21875 C 4.6875 -15.800781 4.515625 -15.273438 4.515625 -14.640625 C 4.515625 -14.085938 4.660156 -13.613281 4.953125 -13.21875 C 5.253906 -12.820312 5.753906 -12.457031 6.453125 -12.125 C 7.160156 -11.789062 8.125 -11.445312 9.34375 -11.09375 C 10.34375 -10.800781 11.265625 -10.4375 12.109375 -10 C 12.960938 -9.570312 13.648438 -8.988281 14.171875 -8.25 C 14.691406 -7.507812 14.953125 -6.53125 14.953125 -5.3125 Z M 14.953125 -5.3125 "/>
            </g>
        </g>
    </g>
    <g fill="#ffffff" fill-opacity="1">
        <g transform="translate(199.050331, 173.079817)">
            <g>
                <path d="M 9.4375 -1.703125 C 10.164062 -1.703125 10.847656 -1.820312 11.484375 -2.0625 C 12.117188 -2.300781 12.707031 -2.609375 13.25 -2.984375 L 14.390625 -1.453125 C 13.742188 -0.898438 12.96875 -0.460938 12.0625 -0.140625 C 11.164062 0.171875 10.289062 0.328125 9.4375 0.328125 C 7.976562 0.328125 6.734375 0.015625 5.703125 -0.609375 C 4.679688 -1.242188 3.898438 -2.128906 3.359375 -3.265625 C 2.816406 -4.398438 2.546875 -5.734375 2.546875 -7.265625 C 2.546875 -8.734375 2.816406 -10.050781 3.359375 -11.21875 C 3.898438 -12.382812 4.679688 -13.300781 5.703125 -13.96875 C 6.734375 -14.632812 7.984375 -14.96875 9.453125 -14.96875 C 10.390625 -14.96875 11.269531 -14.828125 12.09375 -14.546875 C 12.914062 -14.265625 13.671875 -13.84375 14.359375 -13.28125 L 13.21875 -11.71875 C 12.59375 -12.15625 11.96875 -12.484375 11.34375 -12.703125 C 10.71875 -12.921875 10.082031 -13.03125 9.4375 -13.03125 C 8.164062 -13.03125 7.117188 -12.554688 6.296875 -11.609375 C 5.484375 -10.660156 5.078125 -9.210938 5.078125 -7.265625 C 5.078125 -5.972656 5.265625 -4.914062 5.640625 -4.09375 C 6.023438 -3.269531 6.539062 -2.664062 7.1875 -2.28125 C 7.84375 -1.894531 8.59375 -1.703125 9.4375 -1.703125 Z M 9.4375 -1.703125 "/>
            </g>
        </g>
    </g>
    <g fill="#ffffff" fill-opacity="1">
        <g transform="translate(212.726111, 173.079817)">
            <g>
                <path d="M 2.9375 0 L 2.9375 -1.796875 L 5.21875 -1.796875 L 5.21875 -12.875 L 2.9375 -12.875 L 2.9375 -14.671875 L 7 -14.671875 L 7.4375 -11.203125 C 8 -12.410156 8.6875 -13.34375 9.5 -14 C 10.3125 -14.65625 11.378906 -14.984375 12.703125 -14.984375 C 13.109375 -14.984375 13.472656 -14.953125 13.796875 -14.890625 C 14.117188 -14.835938 14.445312 -14.765625 14.78125 -14.671875 L 14.09375 -12.578125 C 13.789062 -12.660156 13.515625 -12.722656 13.265625 -12.765625 C 13.015625 -12.804688 12.722656 -12.828125 12.390625 -12.828125 C 11.273438 -12.828125 10.3125 -12.425781 9.5 -11.625 C 8.6875 -10.832031 8.039062 -9.628906 7.5625 -8.015625 L 7.5625 -1.796875 L 10.546875 -1.796875 L 10.546875 0 Z M 12.515625 -9.703125 L 12.515625 -12.90625 L 12.765625 -14.671875 L 14.78125 -14.671875 L 14.4375 -9.703125 Z M 12.515625 -9.703125 "/>
            </g>
        </g>
    </g>
    <g fill="#ffffff" fill-opacity="1">
        <g transform="translate(226.401891, 173.079817)">
            <g>
                <path d="M 10.21875 -14.671875 L 10.21875 -1.859375 L 14.359375 -1.859375 L 14.359375 0 L 3.359375 0 L 3.359375 -1.859375 L 7.890625 -1.859375 L 7.890625 -12.8125 L 3.5 -12.8125 L 3.5 -14.671875 Z M 8.359375 -21.53125 C 8.878906 -21.53125 9.296875 -21.375 9.609375 -21.0625 C 9.921875 -20.75 10.078125 -20.363281 10.078125 -19.90625 C 10.078125 -19.425781 9.921875 -19.023438 9.609375 -18.703125 C 9.296875 -18.390625 8.878906 -18.234375 8.359375 -18.234375 C 7.867188 -18.234375 7.460938 -18.390625 7.140625 -18.703125 C 6.828125 -19.023438 6.671875 -19.425781 6.671875 -19.90625 C 6.671875 -20.363281 6.828125 -20.75 7.140625 -21.0625 C 7.460938 -21.375 7.867188 -21.53125 8.359375 -21.53125 Z M 8.359375 -21.53125 "/>
            </g>
        </g>
    </g>
    <g fill="#ffffff" fill-opacity="1">
        <g transform="translate(240.077672, 173.079817)">
            <g>
                <path d="M 9.359375 -14.96875 C 10.660156 -14.96875 11.695312 -14.648438 12.46875 -14.015625 C 13.25 -13.390625 13.8125 -12.503906 14.15625 -11.359375 C 14.5 -10.210938 14.671875 -8.875 14.671875 -7.34375 C 14.671875 -5.863281 14.460938 -4.546875 14.046875 -3.390625 C 13.628906 -2.234375 13.003906 -1.320312 12.171875 -0.65625 C 11.335938 0 10.285156 0.328125 9.015625 0.328125 C 7.410156 0.328125 6.117188 -0.238281 5.140625 -1.375 L 5.140625 5.609375 L 2.796875 5.90625 L 2.796875 -14.671875 L 4.796875 -14.671875 L 4.984375 -12.625 C 5.523438 -13.375 6.164062 -13.953125 6.90625 -14.359375 C 7.65625 -14.765625 8.472656 -14.96875 9.359375 -14.96875 Z M 8.796875 -13.09375 C 7.992188 -13.09375 7.28125 -12.847656 6.65625 -12.359375 C 6.039062 -11.867188 5.535156 -11.328125 5.140625 -10.734375 L 5.140625 -3.46875 C 5.523438 -2.90625 6.003906 -2.457031 6.578125 -2.125 C 7.160156 -1.789062 7.800781 -1.625 8.5 -1.625 C 9.71875 -1.625 10.628906 -2.085938 11.234375 -3.015625 C 11.847656 -3.953125 12.15625 -5.398438 12.15625 -7.359375 C 12.15625 -8.640625 12.035156 -9.703125 11.796875 -10.546875 C 11.554688 -11.398438 11.1875 -12.035156 10.6875 -12.453125 C 10.195312 -12.878906 9.566406 -13.09375 8.796875 -13.09375 Z M 8.796875 -13.09375 "/>
            </g>
        </g>
    </g>
    <g fill="#ffffff" fill-opacity="1">
        <g transform="translate(253.753452, 173.079817)">
            <g>
                <path d="M 14.4375 -0.734375 C 13.9375 -0.398438 13.328125 -0.140625 12.609375 0.046875 C 11.898438 0.234375 11.203125 0.328125 10.515625 0.328125 C 8.941406 0.328125 7.722656 -0.0820312 6.859375 -0.90625 C 6.003906 -1.738281 5.578125 -2.804688 5.578125 -4.109375 L 5.578125 -12.859375 L 2.21875 -12.859375 L 2.21875 -14.671875 L 5.578125 -14.671875 L 5.578125 -18 L 7.921875 -18.28125 L 7.921875 -14.671875 L 13 -14.671875 L 12.71875 -12.859375 L 7.921875 -12.859375 L 7.921875 -4.140625 C 7.921875 -3.316406 8.132812 -2.691406 8.5625 -2.265625 C 9 -1.835938 9.71875 -1.625 10.71875 -1.625 C 11.269531 -1.625 11.773438 -1.6875 12.234375 -1.8125 C 12.703125 -1.945312 13.140625 -2.117188 13.546875 -2.328125 Z M 14.4375 -0.734375 "/>
            </g>
        </g>
    </g>
    <g fill="#ffffff" fill-opacity="1">
        <g transform="translate(267.440915, 173.079817)">
            <g/>
        </g>
    </g>
    <g fill="#ffffff" fill-opacity="1">
        <g transform="translate(178.542484, 205.329815)">
            <g>
                <path d="M 1.375 -19.1875 L 4.15625 -19.1875 L 8.359375 -11.8125 L 12.578125 -19.1875 L 15.203125 -19.1875 L 9.75 -10.34375 L 15.859375 0 L 13.078125 0 L 8.296875 -8.671875 L 3.46875 0 L 0.859375 0 L 6.875 -10.21875 Z M 1.375 -19.1875 "/>
            </g>
        </g>
    </g>
    <g fill="#ffffff" fill-opacity="1">
        <g transform="translate(192.229983, 205.329815)">
            <g/>
        </g>
    </g>
    <g fill="#ffffff" fill-opacity="1">
        <g transform="translate(130.671393, 237.579812)">
            <g>
                <path d="M 14.78125 -19.1875 L 15.859375 0 L 13.546875 0 L 12.9375 -10.015625 C 12.914062 -10.691406 12.890625 -11.378906 12.859375 -12.078125 C 12.828125 -12.773438 12.804688 -13.441406 12.796875 -14.078125 C 12.785156 -14.722656 12.78125 -15.296875 12.78125 -15.796875 C 12.78125 -16.296875 12.78125 -16.6875 12.78125 -16.96875 L 9.5625 -3.4375 L 7.125 -3.4375 L 3.65625 -16.96875 C 3.664062 -16.695312 3.675781 -16.296875 3.6875 -15.765625 C 3.695312 -15.242188 3.703125 -14.65625 3.703125 -14 C 3.710938 -13.34375 3.707031 -12.664062 3.6875 -11.96875 C 3.675781 -11.28125 3.660156 -10.640625 3.640625 -10.046875 L 3.125 0 L 0.84375 0 L 1.9375 -19.1875 L 5.3125 -19.1875 L 8.40625 -6.046875 L 11.375 -19.1875 Z M 14.78125 -19.1875 "/>
            </g>
        </g>
    </g>
    <g fill="#ffffff" fill-opacity="1">
        <g transform="translate(144.347178, 237.579812)">
            <g>
                <path d="M 8.390625 -14.96875 C 9.773438 -14.96875 10.929688 -14.65625 11.859375 -14.03125 C 12.796875 -13.40625 13.5 -12.519531 13.96875 -11.375 C 14.4375 -10.238281 14.671875 -8.894531 14.671875 -7.34375 C 14.671875 -5.84375 14.425781 -4.515625 13.9375 -3.359375 C 13.457031 -2.210938 12.75 -1.3125 11.8125 -0.65625 C 10.882812 0 9.734375 0.328125 8.359375 0.328125 C 6.984375 0.328125 5.828125 0.0078125 4.890625 -0.625 C 3.953125 -1.257812 3.242188 -2.148438 2.765625 -3.296875 C 2.285156 -4.441406 2.046875 -5.78125 2.046875 -7.3125 C 2.046875 -8.820312 2.285156 -10.148438 2.765625 -11.296875 C 3.253906 -12.453125 3.96875 -13.351562 4.90625 -14 C 5.851562 -14.644531 7.015625 -14.96875 8.390625 -14.96875 Z M 8.390625 -13.0625 C 7.117188 -13.0625 6.160156 -12.59375 5.515625 -11.65625 C 4.878906 -10.726562 4.5625 -9.28125 4.5625 -7.3125 C 4.5625 -5.382812 4.878906 -3.953125 5.515625 -3.015625 C 6.148438 -2.078125 7.097656 -1.609375 8.359375 -1.609375 C 9.617188 -1.609375 10.566406 -2.078125 11.203125 -3.015625 C 11.835938 -3.953125 12.15625 -5.394531 12.15625 -7.34375 C 12.15625 -9.289062 11.835938 -10.726562 11.203125 -11.65625 C 10.578125 -12.59375 9.640625 -13.0625 8.390625 -13.0625 Z M 8.390625 -13.0625 "/>
            </g>
        </g>
    </g>
    <g fill="#ffffff" fill-opacity="1">
        <g transform="translate(158.022963, 237.579812)">
            <g>
                <path d="M 5.71875 -1.984375 L 13.890625 -1.984375 L 13.578125 0 L 2.859375 0 L 2.859375 -1.765625 L 10.984375 -12.640625 L 3.5 -12.640625 L 3.5 -14.671875 L 13.796875 -14.671875 L 13.796875 -12.859375 Z M 5.71875 -1.984375 "/>
            </g>
        </g>
    </g>
    <g fill="#ffffff" fill-opacity="1">
        <g transform="translate(171.698746, 237.579812)">
            <g>
                <path d="M 4.640625 -6.5 C 4.679688 -5.375 4.894531 -4.445312 5.28125 -3.71875 C 5.675781 -3 6.191406 -2.46875 6.828125 -2.125 C 7.472656 -1.789062 8.171875 -1.625 8.921875 -1.625 C 9.679688 -1.625 10.363281 -1.734375 10.96875 -1.953125 C 11.570312 -2.179688 12.195312 -2.515625 12.84375 -2.953125 L 13.9375 -1.40625 C 13.25 -0.863281 12.46875 -0.4375 11.59375 -0.125 C 10.71875 0.175781 9.820312 0.328125 8.90625 0.328125 C 7.476562 0.328125 6.265625 0.00390625 5.265625 -0.640625 C 4.265625 -1.285156 3.5 -2.179688 2.96875 -3.328125 C 2.445312 -4.472656 2.1875 -5.800781 2.1875 -7.3125 C 2.1875 -8.800781 2.453125 -10.117188 2.984375 -11.265625 C 3.515625 -12.421875 4.253906 -13.328125 5.203125 -13.984375 C 6.160156 -14.640625 7.289062 -14.96875 8.59375 -14.96875 C 9.832031 -14.96875 10.894531 -14.675781 11.78125 -14.09375 C 12.675781 -13.519531 13.363281 -12.695312 13.84375 -11.625 C 14.320312 -10.550781 14.5625 -9.269531 14.5625 -7.78125 C 14.5625 -7.53125 14.554688 -7.296875 14.546875 -7.078125 C 14.535156 -6.859375 14.519531 -6.664062 14.5 -6.5 Z M 8.625 -13.046875 C 7.539062 -13.046875 6.632812 -12.660156 5.90625 -11.890625 C 5.175781 -11.117188 4.757812 -9.925781 4.65625 -8.3125 L 12.296875 -8.3125 C 12.273438 -9.882812 11.929688 -11.066406 11.265625 -11.859375 C 10.609375 -12.648438 9.726562 -13.046875 8.625 -13.046875 Z M 8.625 -13.046875 "/>
            </g>
        </g>
    </g>
    <g fill="#ffffff" fill-opacity="1">
        <g transform="translate(185.374532, 237.579812)">
            <g/>
        </g>
    </g>
    <g fill="#ffffff" fill-opacity="1">
        <g transform="translate(199.050319, 237.579812)">
            <g>
                <path d="M 13.296875 -3.203125 C 13.296875 -2.617188 13.394531 -2.191406 13.59375 -1.921875 C 13.789062 -1.648438 14.09375 -1.453125 14.5 -1.328125 L 13.921875 0.328125 C 13.296875 0.234375 12.742188 0.03125 12.265625 -0.28125 C 11.796875 -0.601562 11.453125 -1.085938 11.234375 -1.734375 C 10.710938 -1.054688 10.054688 -0.539062 9.265625 -0.1875 C 8.472656 0.15625 7.597656 0.328125 6.640625 0.328125 C 5.171875 0.328125 4.015625 -0.0820312 3.171875 -0.90625 C 2.328125 -1.738281 1.90625 -2.835938 1.90625 -4.203125 C 1.90625 -5.722656 2.492188 -6.882812 3.671875 -7.6875 C 4.859375 -8.5 6.566406 -8.90625 8.796875 -8.90625 L 10.953125 -8.90625 L 10.953125 -10.125 C 10.953125 -11.1875 10.640625 -11.9375 10.015625 -12.375 C 9.398438 -12.8125 8.546875 -13.03125 7.453125 -13.03125 C 6.972656 -13.03125 6.40625 -12.972656 5.75 -12.859375 C 5.101562 -12.742188 4.398438 -12.550781 3.640625 -12.28125 L 3.015625 -14.0625 C 3.921875 -14.394531 4.765625 -14.628906 5.546875 -14.765625 C 6.335938 -14.898438 7.09375 -14.96875 7.8125 -14.96875 C 9.644531 -14.96875 11.015625 -14.539062 11.921875 -13.6875 C 12.835938 -12.84375 13.296875 -11.691406 13.296875 -10.234375 Z M 7.25 -1.46875 C 7.96875 -1.46875 8.65625 -1.648438 9.3125 -2.015625 C 9.976562 -2.378906 10.523438 -2.882812 10.953125 -3.53125 L 10.953125 -7.3125 L 8.828125 -7.3125 C 7.210938 -7.3125 6.070312 -7.03125 5.40625 -6.46875 C 4.75 -5.914062 4.421875 -5.171875 4.421875 -4.234375 C 4.421875 -3.328125 4.65625 -2.640625 5.125 -2.171875 C 5.59375 -1.703125 6.300781 -1.46875 7.25 -1.46875 Z M 7.25 -1.46875 "/>
            </g>
        </g>
    </g>
    <g fill="#ffffff" fill-opacity="1">
        <g transform="translate(212.726105, 237.579812)">
            <g>
                <path d="M 9.359375 -14.96875 C 10.660156 -14.96875 11.695312 -14.648438 12.46875 -14.015625 C 13.25 -13.390625 13.8125 -12.503906 14.15625 -11.359375 C 14.5 -10.210938 14.671875 -8.875 14.671875 -7.34375 C 14.671875 -5.863281 14.460938 -4.546875 14.046875 -3.390625 C 13.628906 -2.234375 13.003906 -1.320312 12.171875 -0.65625 C 11.335938 0 10.285156 0.328125 9.015625 0.328125 C 7.410156 0.328125 6.117188 -0.238281 5.140625 -1.375 L 5.140625 5.609375 L 2.796875 5.90625 L 2.796875 -14.671875 L 4.796875 -14.671875 L 4.984375 -12.625 C 5.523438 -13.375 6.164062 -13.953125 6.90625 -14.359375 C 7.65625 -14.765625 8.472656 -14.96875 9.359375 -14.96875 Z M 8.796875 -13.09375 C 7.992188 -13.09375 7.28125 -12.847656 6.65625 -12.359375 C 6.039062 -11.867188 5.535156 -11.328125 5.140625 -10.734375 L 5.140625 -3.46875 C 5.523438 -2.90625 6.003906 -2.457031 6.578125 -2.125 C 7.160156 -1.789062 7.800781 -1.625 8.5 -1.625 C 9.71875 -1.625 10.628906 -2.085938 11.234375 -3.015625 C 11.847656 -3.953125 12.15625 -5.398438 12.15625 -7.359375 C 12.15625 -8.640625 12.035156 -9.703125 11.796875 -10.546875 C 11.554688 -11.398438 11.1875 -12.035156 10.6875 -12.453125 C 10.195312 -12.878906 9.566406 -13.09375 8.796875 -13.09375 Z M 8.796875 -13.09375 "/>
            </g>
        </g>
    </g>
    <g fill="#ffffff" fill-opacity="1">
        <g transform="translate(226.401891, 237.579812)">
            <g>
                <path d="M 9.359375 -14.96875 C 10.660156 -14.96875 11.695312 -14.648438 12.46875 -14.015625 C 13.25 -13.390625 13.8125 -12.503906 14.15625 -11.359375 C 14.5 -10.210938 14.671875 -8.875 14.671875 -7.34375 C 14.671875 -5.863281 14.460938 -4.546875 14.046875 -3.390625 C 13.628906 -2.234375 13.003906 -1.320312 12.171875 -0.65625 C 11.335938 0 10.285156 0.328125 9.015625 0.328125 C 7.410156 0.328125 6.117188 -0.238281 5.140625 -1.375 L 5.140625 5.609375 L 2.796875 5.90625 L 2.796875 -14.671875 L 4.796875 -14.671875 L 4.984375 -12.625 C 5.523438 -13.375 6.164062 -13.953125 6.90625 -14.359375 C 7.65625 -14.765625 8.472656 -14.96875 9.359375 -14.96875 Z M 8.796875 -13.09375 C 7.992188 -13.09375 7.28125 -12.847656 6.65625 -12.359375 C 6.039062 -11.867188 5.535156 -11.328125 5.140625 -10.734375 L 5.140625 -3.46875 C 5.523438 -2.90625 6.003906 -2.457031 6.578125 -2.125 C 7.160156 -1.789062 7.800781 -1.625 8.5 -1.625 C 9.71875 -1.625 10.628906 -2.085938 11.234375 -3.015625 C 11.847656 -3.953125 12.15625 -5.398438 12.15625 -7.359375 C 12.15625 -8.640625 12.035156 -9.703125 11.796875 -10.546875 C 11.554688 -11.398438 11.1875 -12.035156 10.6875 -12.453125 C 10.195312 -12.878906 9.566406 -13.09375 8.796875 -13.09375 Z M 8.796875 -13.09375 "/>
            </g>
        </g>
    </g>
    <path fill="#f4f6fc"
          d="M 314.527344 246.226562 C 319.554688 245.628906 325.355469 247.601562 329.964844 244.820312 C 334.449219 242.121094 333.996094 235.738281 333.789062 231.234375 C 333.324219 221.0625 330.875 208.882812 337.890625 200.222656 C 339.550781 198.167969 341.660156 196.503906 344.019531 195.457031 C 342.5 194.652344 341.097656 193.601562 339.875 192.390625 C 336.296875 188.835938 334.335938 184.039062 333.5625 179.109375 C 332.691406 173.546875 333.246094 167.941406 333.65625 162.363281 C 333.867188 159.492188 334.039062 156.605469 333.914062 153.730469 C 333.820312 151.648438 333.574219 149.15625 332.121094 147.53125 C 330.433594 145.644531 327.558594 145.167969 325.15625 145.113281 C 321.921875 145.039062 318.730469 145.542969 315.5 145.160156 C 314.230469 145.007812 313.148438 141.863281 314.921875 142.074219 C 319.984375 142.675781 325.195312 140.992188 330.035156 143.214844 C 334.691406 145.351562 336.179688 150.367188 336.390625 155.105469 C 336.648438 160.882812 335.730469 166.628906 335.582031 172.398438 C 335.453125 177.484375 335.902344 182.914062 338.550781 187.382812 C 341.109375 191.695312 346.039062 194.621094 351.105469 193.914062 C 352.203125 193.757812 353.351562 195.902344 352.820312 196.734375 C 352.789062 197.21875 352.523438 197.558594 351.898438 197.472656 C 347.320312 196.835938 342.839844 199.332031 340.019531 202.8125 C 336.757812 206.84375 335.675781 212.152344 335.5 217.222656 C 335.300781 222.886719 336.179688 228.511719 336.320312 234.164062 C 336.433594 238.742188 336.359375 244.445312 332.253906 247.417969 C 327.460938 250.890625 321.113281 248.71875 315.714844 249.363281 C 314.390625 249.527344 313.003906 246.410156 314.527344 246.226562 Z M 314.527344 246.226562 "
          fill-opacity="1" fill-rule="nonzero"/>
    <path fill="#f4f6fc"
          d="M 60.464844 246.226562 C 55.441406 245.628906 49.640625 247.601562 45.027344 244.820312 C 40.542969 242.121094 40.996094 235.738281 41.203125 231.234375 C 41.667969 221.0625 44.117188 208.882812 37.105469 200.222656 C 35.441406 198.167969 33.332031 196.503906 30.972656 195.457031 C 32.496094 194.652344 33.898438 193.601562 35.117188 192.390625 C 38.699219 188.835938 40.65625 184.039062 41.429688 179.109375 C 42.300781 173.546875 41.746094 167.941406 41.335938 162.363281 C 41.125 159.492188 40.953125 156.605469 41.078125 153.730469 C 41.171875 151.648438 41.417969 149.15625 42.871094 147.53125 C 44.558594 145.644531 47.433594 145.167969 49.835938 145.113281 C 53.070312 145.039062 56.261719 145.542969 59.492188 145.160156 C 60.761719 145.007812 61.84375 141.863281 60.074219 142.074219 C 55.007812 142.675781 49.800781 140.992188 44.957031 143.214844 C 40.304688 145.351562 38.8125 150.367188 38.601562 155.105469 C 38.347656 160.882812 39.261719 166.628906 39.410156 172.398438 C 39.542969 177.484375 39.09375 182.914062 36.441406 187.382812 C 33.886719 191.695312 28.953125 194.621094 23.886719 193.914062 C 22.792969 193.757812 21.640625 195.902344 22.175781 196.734375 C 22.203125 197.21875 22.46875 197.558594 23.097656 197.472656 C 27.671875 196.835938 32.152344 199.332031 34.972656 202.8125 C 38.234375 206.84375 39.316406 212.152344 39.492188 217.222656 C 39.691406 222.886719 38.8125 228.511719 38.671875 234.164062 C 38.558594 238.742188 38.632812 244.445312 42.738281 247.417969 C 47.53125 250.890625 53.878906 248.71875 59.28125 249.363281 C 60.605469 249.527344 61.988281 246.410156 60.464844 246.226562 Z M 60.464844 246.226562 "
          fill-opacity="1" fill-rule="nonzero"/>
</svg>
